<?xml version="1.0" encoding="utf-8"?><svg viewBox="0 0 502.66 502.66" xmlns="http://www.w3.org/2000/svg" xmlns:xlink="http://www.w3.org/1999/xlink"><style>:root>svg{display:none}:root>svg:target{display:block}</style><svg viewBox="0 0 502.664 502.664" id="icon" xmlns="http://www.w3.org/2000/svg"><path d="M153.821 358.226L0 274.337v-46.463l153.821-83.414v54.574L46.636 250.523l107.185 53.431v54.272zm26.273 29.358L282.103 115.08h32.227L212.084 387.584h-31.99zm168.749-29.358v-54.272l107.164-52.999-107.164-52.59v-53.927l153.821 83.522v46.183l-153.821 84.083z"/></svg><svg viewBox="0 0 64 64" id="play_video" xmlns="http://www.w3.org/2000/svg"><path d="M26 21v22l1.809.786 14.191-11v-1.572l-14.191-11L26 21zm2 2.058L39.381 32 28 40.942V23.058z"/><path d="M32 0C23.453 0 15.417 3.33 9.374 9.375 3.329 15.417 0 23.453 0 32s3.329 16.583 9.374 22.626C15.417 60.671 23.453 64 32 64s16.583-3.33 22.627-9.375C60.671 48.583 64 40.547 64 32s-3.329-16.583-9.374-22.626C48.583 3.329 40.547 0 32 0zm21.213 53.212C47.546 58.879 40.013 62 32 62c-8.013 0-15.546-3.121-21.212-8.789C5.121 47.546 2 40.013 2 32s3.121-15.546 8.788-21.212C16.454 5.121 23.987 2 32 2s15.546 3.122 21.213 8.789C58.88 16.454 62 23.987 62 32s-3.12 15.546-8.787 21.212z"/></svg></svg>