<?xml version="1.0" encoding="utf-8"?><svg viewBox="0 0 502.66 502.66" xmlns="http://www.w3.org/2000/svg" xmlns:xlink="http://www.w3.org/1999/xlink"><style>:root>svg{display:none}:root>svg:target{display:block}</style><svg viewBox="0 0 502.664 502.664" id="icon" xmlns="http://www.w3.org/2000/svg"><path d="M153.821 358.226L0 274.337v-46.463l153.821-83.414v54.574L46.636 250.523l107.185 53.431v54.272zm26.273 29.358L282.103 115.08h32.227L212.084 387.584h-31.99zm168.749-29.358v-54.272l107.164-52.999-107.164-52.59v-53.927l153.821 83.522v46.183l-153.821 84.083z"/></svg><svg viewBox="0 0 64 64" id="play_video" xmlns="http://www.w3.org/2000/svg"><path d="M26 21v22l1.809.786 14.191-11v-1.572l-14.191-11L26 21zm2 2.058L39.381 32 28 40.942V23.058z"/><path d="M32 0C23.453 0 15.417 3.33 9.374 9.375 3.329 15.417 0 23.453 0 32s3.329 16.583 9.374 22.626C15.417 60.671 23.453 64 32 64s16.583-3.33 22.627-9.375C60.671 48.583 64 40.547 64 32s-3.329-16.583-9.374-22.626C48.583 3.329 40.547 0 32 0zm21.213 53.212C47.546 58.879 40.013 62 32 62c-8.013 0-15.546-3.121-21.212-8.789C5.121 47.546 2 40.013 2 32s3.121-15.546 8.788-21.212C16.454 5.121 23.987 2 32 2s15.546 3.122 21.213 8.789C58.88 16.454 62 23.987 62 32s-3.12 15.546-8.787 21.212z"/></svg><svg viewBox="0 0 256 256" id="teleg" xmlns="http://www.w3.org/2000/svg"><path d="M128 10.24C63.027 10.24 10.24 63.027 10.24 128S63.027 245.76 128 245.76 245.76 192.973 245.76 128 192.973 10.24 128 10.24zm0 10.24c59.443 0 107.52 48.077 107.52 107.52S187.443 235.52 128 235.52 20.48 187.443 20.48 128 68.557 20.48 128 20.48zm46.53 51.38c-3.502 0-7.439.813-12.042 2.472-7.147 2.576-91.212 38.267-100.777 42.327-5.468 2.325-15.651 6.651-15.651 16.963 0 6.835 4.003 11.725 11.888 14.54 4.24 1.506 14.31 4.557 20.152 6.17 2.479.681 5.11 1.024 7.819 1.024 5.299 0 10.634-1.316 14.812-3.645-.036.86-.015 1.73.087 2.6.63 5.377 3.942 10.43 8.858 13.528 3.22 2.027 29.48 19.625 33.402 22.425 5.51 3.932 11.602 6.016 17.603 6.016 11.469 0 15.314-11.842 17.167-17.53 2.688-8.26 12.754-75.418 13.89-87.26.774-8.116-2.61-14.798-9.046-17.88a18.662 18.662 0 00-8.161-1.75zm0 10.24c1.409 0 2.663.235 3.728.752 2.422 1.162 3.656 3.753 3.282 7.67-1.24 12.917-11.28 78.484-13.42 85.058-1.833 5.622-3.763 10.46-7.439 10.46s-7.695-1.29-11.653-4.121c-3.958-2.827-30.239-20.45-33.89-22.748-3.2-2.018-6.584-7.046-1.817-11.91 3.927-4.003 33.715-32.921 36.26-35.46 1.894-1.9 1.008-4.189-.85-4.189-.64 0-1.408.266-2.202.922-3.113 2.54-46.51 31.58-50.268 33.915-2.488 1.546-6.344 2.662-10.342 2.662-1.705 0-3.43-.205-5.09-.666-5.775-1.587-15.549-4.556-19.43-5.939-3.732-1.331-5.09-2.6-5.09-4.884 0-3.246 4.583-5.489 9.411-7.542 5.1-2.166 93.338-39.639 100.24-42.122 3.195-1.157 6.118-1.859 8.57-1.859z" font-family="none" font-weight="none" font-size="none" text-anchor="none"/></svg><svg viewBox="0 0 256 256" id="vk" xmlns="http://www.w3.org/2000/svg"><path d="M128 10.24C63.027 10.24 10.24 63.027 10.24 128S63.027 245.76 128 245.76 245.76 192.973 245.76 128 192.973 10.24 128 10.24zm0 10.24c59.443 0 107.52 48.077 107.52 107.52S187.443 235.52 128 235.52 20.48 187.443 20.48 128 68.557 20.48 128 20.48zM76.81 92.16l-20.659.01s-1.183-.066-2.611.118c-1.429.19-3.533.276-5.699 2.724l-.01.01-.01.01c-1.925 2.202-1.854 4.762-1.613 6.17a9.291 9.291 0 00.783 2.458v.01c.2.486 15.197 37.243 34.11 56.985 13.337 13.947 27.597 18.545 40.31 18.545H128c2.166 0 4.106-.102 6.246-1.208 2.15-1.111 3.994-4.178 3.994-6.564 0-2.56.061-5.054.39-6.436.306-1.295.189-.978.306-.983a3.584 3.584 0 01.773.271c.912.41 2.325 1.332 3.892 2.55 3.123 2.427 6.83 5.95 10.977 8.668 5.95 3.943 12.4 3.702 12.4 3.702h21.284l.226-.02s3.266-.072 6.62-2.13c1.68-1.024 3.67-2.914 4.342-5.74.665-2.826-.185-5.79-1.828-8.397-.604-.957-3.518-5.186-15.16-15.524-3.011-2.662-5.06-4.556-5.873-5.56-.287-.358-.307-.322-.369-.338.067-.174.743-1.592 2.54-3.932 1.874-2.437 4.725-5.837 8.391-10.496 4.67-5.955 7.947-11.674 10.01-16.502 1.03-2.416 1.761-4.608 2.202-6.59.435-1.986.783-3.634.138-5.99a7.665 7.665 0 00-3.082-4.147 9.405 9.405 0 00-3.559-1.346c-2.15-.4-4.05-.328-5.821-.328-3.707 0-20.178.128-21.54.128-1.592 0-4.142.666-5.32 1.341-2.923 1.675-3.84 3.968-3.84 3.968l-.281.492-.154.553s-3.753 12.134-7.613 18.386h-.01c-4.537 7.373-7.921 10.291-9.411 11.12l-.18.103a7.142 7.142 0 01-.358-1.67c-.22-1.945-.092-4.69-.092-7.341 0-7.342.553-11.925-.061-16.261-.308-2.166-1.08-4.583-2.857-6.441-1.777-1.854-4.07-2.765-6.36-3.298h-.01c-2.39-.548-4.966-1.024-11.14-1.08-7.875-.072-13.006.169-17.562 2.202l-.052.03-.035.016a14.592 14.592 0 00-4.475 3.113c-.625.645-1.362 1.116-1.88 3.18-.255 1.028-.281 2.979.881 4.556 1.168 1.587 2.8 2.058 3.763 2.181-.179-.02.753.184 1.48.543.717.358 1.347.87 1.51 1.075v.015c-.071-.087.625 1.639.81 3.21.179 1.572.148 2.837.148 2.837l-.01.307.03.313s.313 3.481.154 7.07a24.422 24.422 0 01-.614 4.71c-.016.062-.02.042-.041.093-1.28-.896-4.235-4.014-8.31-10.742-3.763-6.22-7.29-17.408-7.29-17.408l-.078-.25-.092-.241s-.655-2.499-3.558-4.542c-2.719-1.915-5.31-2.176-5.31-2.176zm-1.188 10.24c.292.102.902.328 1.02.379l-.124-.359.164.37.016.01v.01h.01c-.256-.18-.036 0-.01.04.143.482 3.271 11.25 8.15 19.318 4.45 7.348 7.732 11.464 11.321 13.927 3.584 2.452 8.402 2.201 10.854.921 3.272-1.694 4.183-4.49 4.813-6.814.635-2.33.86-4.69.963-6.923.194-4.26-.139-7.741-.17-8.09.006-.194.052-1.858-.21-4.095-.26-2.263-.731-5.069-2.738-7.895 2.247-.333 3.491-.84 8.028-.799 5.785.051 6.666.297 8.94.82 1.238.286 1.382.521 1.259.399-.118-.123-.01-.205.133.793.282 1.987-.041 7.086-.041 14.828 0 2.18-.21 5.258.154 8.478.358 3.226 1.362 7.342 5.258 9.754 2.217 1.372 6.451 1.843 10.445-.384 3.993-2.222 8.094-6.492 13.143-14.69 4.987-8.079 7.966-18.703 8.294-19.829l.087-.061c.087.005-.025.02.118.02 1.894 0 18.079-.128 21.54-.128.952 0 1.372.051 2.084.082a27.32 27.32 0 01-1.383 4.045c-1.664 3.896-4.52 8.95-8.653 14.213-3.558 4.536-6.323 7.823-8.437 10.573-2.115 2.744-3.774 4.915-4.47 8.048-.691 3.134.63 6.667 2.442 8.91 1.807 2.242 4.045 4.126 7.04 6.778 11.264 10 13.107 13.03 13.286 13.312v.01c.19.302.067 0 .144.154l-1.47.435h-20.751s-3.814-.123-6.64-1.997l-.01-.015h-.011c-2.995-1.956-6.61-5.32-10.332-8.208-1.859-1.443-3.753-2.795-5.95-3.788-2.196-.994-4.976-1.7-7.91-.82-4.24 1.265-6.59 5.305-7.347 8.51-.543 2.299-.461 4.3-.482 6.308-.138.01-.02.01-.189.01h-6.59c-10.408 0-21.232-3.174-32.91-15.38-15.182-15.852-28.724-46.51-30.762-51.17zm89.309.041c-.093.02.174.04.389.061-.031.016 0-.015-.041.006 0-.082-.226-.098-.348-.067z" font-family="none" font-weight="none" font-size="none" text-anchor="none"/></svg><svg viewBox="0 0 256 256" id="whatsapp" xmlns="http://www.w3.org/2000/svg"><path d="M128 10.24C63.027 10.24 10.24 63.027 10.24 128c0 20.89 5.73 40.376 15.278 57.39L10.43 239.258a5.12 5.12 0 006.16 6.348l56.166-13.916c16.517 8.807 35.246 14.07 55.245 14.07 64.973 0 117.76-52.787 117.76-117.76S192.973 10.24 128 10.24zm0 10.24c59.443 0 107.52 48.077 107.52 107.52S187.443 235.52 128 235.52c-19.057 0-36.905-4.966-52.419-13.65a5.12 5.12 0 00-3.732-.502L22.661 233.56l13.19-47.058a5.12 5.12 0 00-.513-3.993A106.906 106.906 0 0120.48 128C20.48 68.557 68.557 20.48 128 20.48zM85.212 66.56c-3.282 0-7.972 1.219-11.822 5.37-2.314 2.494-11.95 11.88-11.95 28.391 0 17.209 11.935 32.062 13.379 33.971h.01v.006a162.15 162.15 0 0015.38 18.862c9.237 9.723 22.221 20.956 38.329 27.832 7.424 3.159 13.276 5.069 17.715 6.456 8.217 2.58 15.703 2.192 21.325 1.362 4.213-.62 8.842-2.642 13.424-5.54 4.578-2.898 9.068-6.502 11.05-11.98a42.24 42.24 0 002.4-10.542 24.166 24.166 0 00.052-4.03c-.103-1.218 0-2.15-1.132-4.02-2.386-3.91-5.084-4.013-7.9-5.406a846.175 846.175 0 00-10.496-5.084c-4.46-2.125-8.325-4.009-10.706-4.859-1.505-.543-3.338-1.32-5.99-1.019-2.647.302-5.269 2.212-6.79 4.47-1.443 2.14-7.26 9.001-9.031 11.018-.02-.01.133.057-.568-.286-2.192-1.086-4.875-2.008-8.843-4.102a73.134 73.134 0 01-14.356-9.968v-.01c-8.085-7.117-13.747-16.052-15.534-19.052.123-.143-.01.03.24-.22l.01-.01c1.828-1.798 3.446-3.943 4.813-5.52 1.936-2.232 2.79-4.198 3.718-6.041 1.843-3.666.819-7.696-.251-9.82v-.01c.076.148-.574-1.291-1.28-2.95l-2.56-6.118c-1.915-4.598-4.055-9.759-5.325-12.78v-.01c-1.5-3.558-3.533-6.124-6.185-7.363-2.652-1.234-4.992-.885-5.09-.885h-.01c-1.894-.093-3.968-.113-6.026-.113zm0 10.24c1.971 0 3.917.026 5.55.102 1.674.082 1.572.087 1.25-.061-.328-.154.117-.205 1.07 2.058 1.244 2.96 3.394 8.141 5.32 12.749.962 2.304 1.858 4.475 2.58 6.17.717 1.7 1.106 2.647 1.556 3.553v.01l.01.01c.446.87.41.313.256.615-1.085 2.15-1.228 2.672-2.324 3.932-1.664 1.92-3.364 4.055-4.26 4.94-.788.774-2.201 1.977-3.092 4.332-.886 2.355-.471 5.596.952 8.008 1.894 3.22 8.14 13.378 17.838 21.924a83.712 83.712 0 0016.353 11.346c4.547 2.401 8.249 3.804 9.078 4.213 1.971.973 4.122 1.731 6.62 1.429 2.504-.302 4.66-1.818 6.032-3.369l.01-.01c1.828-2.074 7.255-8.27 9.861-12.089.108.036.072.006.937.318v.01h.01c.394.138 5.345 2.355 9.759 4.46 4.418 2.099 8.898 4.29 10.353 5.012 2.099 1.04 3.092 1.715 3.348 1.72.02.446.036.937-.03 1.68a32.589 32.589 0 01-1.829 7.946c-.537 1.495-3.348 4.572-6.891 6.81-3.543 2.242-7.854 3.83-9.452 4.06-4.797.711-10.496.967-16.757-.999a171.116 171.116 0 01-16.758-6.108c-14.213-6.062-26.291-16.374-34.918-25.462a152.146 152.146 0 01-10.235-11.97c-2.458-3.19-3.523-4.854-4.419-6.031l-.01-.006c-1.587-2.099-11.3-15.616-11.3-27.78 0-12.883 5.985-17.936 9.216-21.423 1.705-1.833 3.564-2.099 4.316-2.099z" font-family="none" font-weight="none" font-size="none" text-anchor="none"/></svg></svg>